# xmcd
#
# Track frame offsets:
#	150
#	17379
#	27647
#	43559
#	55377
#	70568
#	81289
#	95101
#	109472
#	123207
#	142361
#	161105
#	176317
#	194911
#	213444
#	228972
#	244526
#	259674
#
# Disc length: 3702 seconds
#
# Revision: 1
# Processed by: cddbd v1.4PL0 Copyright (c) Steve Scherf et al.
# Submitted via: audiograbber 1.81.03
#
DISCID=050e7412
DTITLE=Various Artist - Hott Country 3
DYEAR=1900
DGENRE=Country
TTITLE0=Chely Wright - The Love That We Lost
TTITLE1=Ty Herndon - In You Face
TTITLE2=Mindy McCready - Ten Thousnad Angels
TTITLE3=Joe Diffie - Country
TTITLE4=Billy Dean - It's What I Do
TTITLE5=Lisa Brokop - Before He Kissed Me
TTITLE6=Stephanie Bently - Who's That Girl
TTITLE7=Lari White - Ready, Willing And Able
TTITLE8=Riochet - Daddy's Money
TTITLE9=John Michael Montgomery - Long As I Live
TTITLE10=Don Neilson - Love That I Deserve
TTITLE11=Dwight Yoakam - Sorry You Asked
TTITLE12=Megan Metcalf - Starbird Road
TTITLE13=Bobbie Cryner - You Think He'd Know Better
TTITLE14=Keith Stegall - 1969
TTITLE15=JoDee Messina - Heads Carolina TAils California
TTITLE16=Duane Steele - Stuck On Your Love
TTITLE17=Johner Brothers - Hillbilly, Country Boy
EXTD=
EXTT0=
EXTT1=
EXTT2=
EXTT3=
EXTT4=
EXTT5=
EXTT6=
EXTT7=
EXTT8=
EXTT9=
EXTT10=
EXTT11=
EXTT12=
EXTT13=
EXTT14=
EXTT15=
EXTT16=
EXTT17=
PLAYORDER=
